<svg width="144" height="144" viewBox="0 0 144 144" fill="none" xmlns="http://www.w3.org/2000/svg">
<path fill-rule="evenodd" clip-rule="evenodd" d="M144 72C144 111.765 111.765 144 72 144C32.2355 144 0 111.765 0 72C0 32.2355 32.2355 0 72 0C111.765 0 144 32.2355 144 72ZM52.8002 59.7336C59.5745 59.7336 65.0666 54.2415 65.0666 47.4666C65.0666 40.6923 59.5745 35.2 52.8002 35.2C46.0253 35.2 40.5332 40.6923 40.5332 47.4666C40.5332 54.2415 46.0253 59.7336 52.8002 59.7336ZM91.1998 59.7336C97.9747 59.7336 103.467 54.2415 103.467 47.4666C103.467 40.6923 97.9747 35.2 91.1998 35.2C84.4255 35.2 78.9334 40.6923 78.9334 47.4666C78.9334 54.2415 84.4255 59.7336 91.1998 59.7336ZM72.5332 97.0667C56.0386 97.0667 42.6668 83.6948 42.6668 67.2002H29.8667C29.8667 90.764 48.9694 109.867 72.5332 109.867C96.0977 109.867 115.2 90.764 115.2 67.2002H102.4C102.4 83.6948 89.0285 97.0667 72.5332 97.0667Z" fill="#219653"/>
</svg>
